<svg width="48" height="48" viewBox="0 0 48 48" fill="none" xmlns="http://www.w3.org/2000/svg">
<rect width="48" height="48" rx="24" fill="#4D44B5"/>
<path d="M32 16H16C15.2044 16 14.4413 16.3161 13.8787 16.8787C13.3161 17.4413 13 18.2044 13 19V29C13 29.7956 13.3161 30.5587 13.8787 31.1213C14.4413 31.6839 15.2044 32 16 32H32C32.7956 32 33.5587 31.6839 34.1213 31.1213C34.6839 30.5587 35 29.7956 35 29V19C35 18.2044 34.6839 17.4413 34.1213 16.8787C33.5587 16.3161 32.7956 16 32 16ZM33 28.75L28.1 24.35L33 20.92V28.75ZM15 20.92L19.9 24.35L15 28.75V20.92ZM21.58 25.53L23.43 26.82C23.5974 26.9361 23.7963 26.9984 24 26.9984C24.2037 26.9984 24.4026 26.9361 24.57 26.82L26.42 25.53L31.42 30H16.6L21.58 25.53ZM16 18H32C32.1857 18.0015 32.3673 18.0547 32.5245 18.1536C32.6817 18.2525 32.8083 18.3932 32.89 18.56L24 24.78L15.11 18.56C15.1917 18.3932 15.3183 18.2525 15.4755 18.1536C15.6326 18.0547 15.8143 18.0015 16 18Z" fill="white"/>
</svg>
